<svg id="Capa_1" enable-background="new 0 0 511.989 511.989" height="512" viewBox="0 0 511.989 511.989" width="512" xmlns="http://www.w3.org/2000/svg"><g><path d="m504.489 229.972h-32.156c-1.103 0-2.192.243-3.19.712-20.939 9.841-40.239 22.712-57.535 38.353-6.425-24.771-20.276-47.277-39.868-64.424-7.806-6.832-16.35-12.638-25.423-17.355 2.896-1.038 4.972-3.8 4.972-7.054 0-4.143-3.357-7.5-7.5-7.5h-5.838c-1.253-41.116-32.761-74.737-72.977-79.297.328-1.843.513-3.715.513-5.604 0-17.586-14.308-31.894-31.895-31.894-17.586 0-31.893 14.308-31.893 31.894 0 1.888.184 3.76.512 5.602-18.3 2.058-35.287 10.124-48.576 23.263-2.945 2.912-2.972 7.661-.06 10.606 2.912 2.944 7.661 2.972 10.606.06 12.699-12.556 29.521-19.471 47.366-19.471 2.867 0 46.936 0 44.086 0 36.303 0 65.993 28.861 67.333 64.842-23.399 0-163.256 0-178.751 0 .287-7.708 1.881-15.238 4.749-22.423 1.536-3.847-.337-8.211-4.184-9.746-3.845-1.533-8.211.338-9.746 4.184-3.578 8.961-5.514 18.365-5.807 27.985h-5.833c-4.143 0-7.5 3.357-7.5 7.5 0 3.272 2.098 6.046 5.02 7.071-13.439 6.978-25.69 16.313-36.06 27.726-24.241 26.679-36.176 62.49-32.745 98.253 1.308 13.639 3.597 26.992 6.79 39.836-3.557-1.7-7.3-3.032-11.175-3.95l-30.071-7.127c-4.022-.952-8.072 1.537-9.027 5.568l-7.126 30.07c-3.738 15.773-.412 32.359 9.127 45.505 1.468 2.021 3.756 3.096 6.076 3.096 1.527 0 3.068-.466 4.399-1.431 3.353-2.433 4.098-7.123 1.665-10.476-6.97-9.604-9.401-21.718-6.672-33.235l5.397-22.772 22.773 5.397c5.597 1.326 10.813 3.828 15.333 7.292-6.387 18.262-4.827 38.696 4.645 55.905-6.226 3.964-13.178 4.71-20.963 2.235-3.946-1.253-8.165.928-9.419 4.876-1.255 3.947.929 8.165 4.876 9.419 12.877 4.092 24.612 2.046 34.141-4.258 19.877 22.525 50.855 21.401 69.105 3.152 1.024-1.024 1.996-2.081 2.941-3.152 6.313 4.176 13.743 6.423 21.301 6.423 2.929 0 5.878-.337 8.784-1.025 6.951-1.647 13.277-4.553 18.819-8.399h154.554c14.799 0 28.438-8.1 35.593-21.138 5.674-10.338 10.661-21.064 14.823-31.882 1.503-3.907 4.896-6.812 9.075-7.771 19.762-4.531 35.887-19.356 42.084-38.699l.257-.758c1.284-3.938-.867-8.172-4.806-9.456-3.94-1.285-8.172.868-9.456 4.806l-.084.249c-.069.2-.138.4-.199.593-4.587 14.314-16.521 25.291-31.148 28.645-9.053 2.076-16.426 8.434-19.723 17.006-3.921 10.19-8.622 20.301-13.974 30.051-4.521 8.237-13.12 13.354-22.442 13.354h-139.88c8.208-12.383 11.492-27.989 7.804-43.551l-7.128-30.07c-.955-4.03-4.997-6.522-9.027-5.568l-30.07 7.127c-6.647 1.575-12.912 4.354-18.5 8.161-2.688-4.282-5.873-8.338-9.596-12.062l-27.778-27.778c-2.93-2.928-7.678-2.928-10.607 0l-27.78 27.778c-.936.936-1.831 1.897-2.702 2.873-2.839-11.709-4.884-23.87-6.076-36.292-3.028-31.564 7.511-63.178 28.915-86.733 21.589-23.759 52.378-37.385 84.474-37.385h106.321c27.659 0 54.333 10.014 75.107 28.196 20.474 17.919 33.85 42.439 37.666 69.044.404 2.821 2.372 5.169 5.079 6.06 2.705.891 5.685.172 7.686-1.858 18.101-18.356 38.862-33.212 61.731-44.173h12.565c-15.466 16.867-28.204 35.367-37.979 55.183-1.832 3.715-.306 8.212 3.408 10.045 3.717 1.831 8.212.306 10.045-3.408 11.553-23.422 27.563-44.912 47.585-63.874 2.229-2.111 2.946-5.368 1.811-8.221-1.136-2.854-3.897-4.726-6.967-4.726zm-270.897-159.063c9.315 0 16.895 7.578 16.895 16.894 0 1.727-.272 3.431-.783 5.06h-32.221c-.51-1.628-.783-3.332-.783-5.06-.001-9.316 7.577-16.894 16.892-16.894zm-60.053 292.827 22.772-5.397 5.398 22.772c5.165 21.795-8.363 43.729-30.158 48.896-6.208 1.471-12.71.289-17.991-3.074 9.472-17.209 11.032-37.643 4.645-55.905 4.52-3.465 9.737-5.966 15.334-7.292zm-64.637-30.364 22.475 22.475c29.094 29.095 13.64 77.404-14.975 84.307v-28.6l13.79-12.122c3.111-2.734 3.417-7.474.682-10.584-2.734-3.113-7.475-3.417-10.584-.682l-3.888 3.417v-3.759c0-4.143-3.357-7.5-7.5-7.5s-7.5 3.357-7.5 7.5v22.444l-3.521-2.041c-3.587-2.078-8.174-.858-10.25 2.727-2.078 3.584-.856 8.173 2.727 10.25l11.045 6.402v12.547c-28.653-6.912-44.166-55.114-14.975-84.306z"/><path d="m459.72 187.704c7.604 0 13.789 6.186 13.789 13.789v15.054c0 4.143 3.357 7.5 7.5 7.5s7.5-3.357 7.5-7.5v-15.054c0-15.874-12.915-28.789-28.789-28.789-7.604 0-13.789-6.186-13.789-13.789v-25.221c0-7.719 6.279-13.998 13.998-13.998h19.452c15.989 0 28.998-13.009 28.998-28.998v-6.736c0-4.143-3.357-7.5-7.5-7.5s-7.5 3.357-7.5 7.5v6.736c0 7.719-6.279 13.998-13.998 13.998h-19.452c-15.989 0-28.998 13.009-28.998 28.998v25.221c-.001 15.874 12.914 28.789 28.789 28.789z"/><path d="m504.489 151.215c-4.143 0-7.5 3.357-7.5 7.5v54.254c0 4.143 3.357 7.5 7.5 7.5s7.5-3.357 7.5-7.5v-54.254c0-4.143-3.357-7.5-7.5-7.5z"/><path d="m461.556 95.302c4.143 0 7.5-3.357 7.5-7.5v-21.032c0-4.143-3.357-7.5-7.5-7.5s-7.5 3.357-7.5 7.5v21.032c0 4.143 3.358 7.5 7.5 7.5z"/></g></svg>